<?xml version="1.0" encoding="utf-8"?>
<!-- Generator: Adobe Illustrator 21.0.0, SVG Export Plug-In . SVG Version: 6.00 Build 0)  -->
<svg version="1.1" id="Layer_1" xmlns="http://www.w3.org/2000/svg" xmlns:xlink="http://www.w3.org/1999/xlink" x="0px" y="0px"
	 viewBox="0 0 460.9 89.2" style="enable-background:new 0 0 460.9 89.2;" xml:space="preserve">
<style type="text/css">
	.st0{fill-rule:evenodd;clip-rule:evenodd;fill:#0090D0;}
	.st1{fill-rule:evenodd;clip-rule:evenodd;fill:#EC1C24;}
	.st2{fill-rule:evenodd;clip-rule:evenodd;fill:#005CA6;}
	.st3{fill-rule:evenodd;clip-rule:evenodd;fill:#FBB222;}
	.st4{fill-rule:evenodd;clip-rule:evenodd;fill:#0C8C45;}
	.st5{fill-rule:evenodd;clip-rule:evenodd;fill:#959596;}
	.st6{fill-rule:evenodd;clip-rule:evenodd;fill:#231F20;}
</style>
<g>
	<g>
		<path class="st0" d="M56.5,27.7l-12.8,22l0,0.1c-0.6,1.1-1.8,1.9-3.2,1.9c-1.4,0-2.6-0.8-3.2-1.9l0-0.1l-12.8-22
			c-5.1-8.8-2.1-20.1,6.8-25.2C34.1,0.8,37.3,0,40.5,0l0,0h0c3.1,0,6.3,0.8,9.3,2.5C58.6,7.6,61.7,18.8,56.5,27.7z"/>
		<path class="st1" d="M102.4,27.7l-12.8,22l0,0.1c-0.6,1.1-1.8,1.9-3.2,1.9c-1.4,0-2.6-0.8-3.2-1.9l0-0.1l-12.8-22
			c-5.1-8.8-2.1-20.1,6.8-25.2C80,0.8,83.2,0,86.4,0h0h0c3.1,0,6.3,0.8,9.3,2.5C104.5,7.6,107.5,18.8,102.4,27.7z"/>
		<path class="st2" d="M2.5,61.5l12.7-22l0-0.1c0.6-1.1,1.8-1.9,3.2-1.9c1.4,0,2.6,0.8,3.2,1.9l0,0.1l12.7,22
			c5.1,8.8,2.1,20.1-6.8,25.2c-2.9,1.7-6.1,2.5-9.2,2.5h0l0,0c-3.1,0-6.3-0.8-9.2-2.5C0.4,81.6-2.6,70.3,2.5,61.5z"/>
		<path class="st3" d="M48.2,61.5l12.7-22l0-0.1c0.6-1.1,1.8-1.9,3.2-1.9c1.4,0,2.6,0.8,3.2,1.9l0,0.1l12.7,22
			c5.1,8.8,2.1,20.1-6.8,25.2c-2.9,1.7-6.1,2.5-9.2,2.5h0l0,0c-3.1,0-6.3-0.8-9.2-2.5C46.1,81.6,43.1,70.3,48.2,61.5z"/>
		<path class="st4" d="M93.9,61.5l12.7-22l0-0.1c0.6-1.1,1.8-1.9,3.2-1.9c1.4,0,2.6,0.8,3.2,1.9l0,0.1l12.7,22
			c5.1,8.8,2.1,20.1-6.8,25.2c-2.9,1.7-6.1,2.5-9.2,2.5h0l0,0c-3.1,0-6.3-0.8-9.2-2.5C91.8,81.6,88.8,70.3,93.9,61.5z"/>
	</g>
	<path class="st5" d="M166.2,71.7v4.5h-2.4v-4.5l-5-8.3h2.5l3.7,6.2l3.8-6.2h2.3L166.2,71.7L166.2,71.7z M181.7,63.4
		c1.1,0,2.1,0.2,2.9,0.5c0.8,0.4,1.4,0.9,1.9,1.6c0.4,0.7,0.7,1.5,0.7,2.4c0,0.9-0.2,1.7-0.7,2.4c-0.4,0.7-1.1,1.2-1.9,1.6
		c-0.8,0.4-1.8,0.5-2.9,0.5h-2.9v3.7h-2.4V63.4H181.7L181.7,63.4z M181.5,70.5c1,0,1.8-0.2,2.3-0.7c0.5-0.4,0.8-1.1,0.8-1.9
		c0-0.8-0.3-1.4-0.8-1.9c-0.5-0.4-1.3-0.7-2.3-0.7h-2.8v5.1H181.5L181.5,70.5z M201.5,65.4h-6.3l0,10.7h-2.3V63.4h8.6L201.5,65.4
		L201.5,65.4z M210.8,63.2c1.2,0,2.3,0.3,3.3,0.8c1,0.6,1.8,1.3,2.3,2.3c0.6,1,0.8,2.1,0.8,3.4c0,1.2-0.3,2.4-0.8,3.4
		c-0.6,1-1.3,1.8-2.3,2.3c-1,0.6-2.1,0.8-3.3,0.8c-1.1,0-2.1-0.2-2.9-0.5c-0.9-0.4-1.6-0.9-2.2-1.6l1.5-1.5c0.9,1,2.1,1.5,3.5,1.5
		c1.1,0,2-0.3,2.8-1c0.8-0.7,1.2-1.5,1.4-2.6h-5.7v-1.9h5.7c-0.2-1-0.7-1.9-1.4-2.5c-0.7-0.6-1.6-0.9-2.7-0.9
		c-1.4,0-2.6,0.5-3.5,1.5l-1.5-1.5c0.6-0.7,1.3-1.2,2.2-1.6C208.8,63.4,209.8,63.2,210.8,63.2L210.8,63.2z M234,63.4v12.7h-2.3V65.4
		h-5l-0.1,3.2c-0.1,1.8-0.2,3.2-0.4,4.3c-0.2,1.1-0.6,2-1.1,2.5c-0.5,0.6-1.2,0.9-2.1,0.9c-0.3,0-0.7-0.1-1.3-0.2l0.2-2.1
		c0.2,0,0.3,0.1,0.5,0.1c0.7,0,1.3-0.4,1.6-1.3c0.3-0.9,0.5-2.3,0.6-4.2l0.2-5.3H234L234,63.4z M252.3,70.8h-2.2v5.4h-2.3v-5.4h-2.2
		l-3.2,5.4h-2.7l4-6.6l-3.7-6.1h2.5l3.1,5.3h2.2v-5.3h2.3v5.3h2.2l3.1-5.3h2.5l-3.7,6.1l4,6.6h-2.7L252.3,70.8L252.3,70.8z
		 M270.4,63.4l3,4.3l3-4.3h2.8l-4.3,6.1l4.6,6.6h-2.8l-3.3-4.6l-3.3,4.6h-2.7l4.6-6.5l-4.3-6.2H270.4L270.4,63.4z M292.8,73.2h-6.4
		l-1.3,2.9h-2.4l5.7-12.7h2.3l5.7,12.7h-2.5L292.8,73.2L292.8,73.2z M292.1,71.3l-2.4-5.6l-2.4,5.6H292.1L292.1,71.3z M313.8,76.2
		l0-8.4l-4.2,7h-1.1l-4.2-6.9v8.3h-2.2V63.4h1.9l5,8.4l5-8.4h1.9l0,12.7H313.8L313.8,76.2z M332.4,65.4h-4.2v10.7h-2.3V65.4h-4.2v-2
		h10.8V65.4L332.4,65.4z M349.9,74.2v4.7h-2.2v-2.7H338v2.7h-2.2l0-4.7h0.5c0.8,0,1.4-0.6,1.7-1.8c0.3-1.1,0.5-2.8,0.6-4.9l0.1-4
		h9.3v10.7H349.9L349.9,74.2z M340.7,67.7c-0.1,1.6-0.2,3-0.4,4.1c-0.2,1.1-0.5,1.9-1,2.4h6.5v-8.7h-5L340.7,67.7L340.7,67.7z
		 M364.2,73.2h-6.4l-1.3,2.9h-2.4l5.7-12.7h2.3l5.7,12.7h-2.5L364.2,73.2L364.2,73.2z M363.5,71.3l-2.4-5.6l-2.4,5.6H363.5
		L363.5,71.3z M382.3,73.2h-6.4l-1.3,2.9h-2.4l5.7-12.7h2.3l5.7,12.7h-2.5L382.3,73.2L382.3,73.2z M381.5,71.3l-2.4-5.6l-2.4,5.6
		H381.5z"/>
	<path class="st6" d="M188.6,44.7l0-21.5L177.9,41h-2.7l-10.7-17.5v21.2h-5.7V12.3h5l12.9,21.5l12.6-21.5h5l0,32.4H188.6L188.6,44.7
		z M213.6,45c-2.5,0-4.8-0.5-6.8-1.6c-2-1.1-3.6-2.6-4.7-4.5c-1.1-1.9-1.7-4.1-1.7-6.6s0.6-4.6,1.7-6.5c1.1-1.9,2.7-3.4,4.7-4.5
		c2-1.1,4.3-1.6,6.8-1.6c2.5,0,4.8,0.5,6.8,1.6c2,1.1,3.6,2.6,4.7,4.5c1.1,1.9,1.7,4.1,1.7,6.5s-0.6,4.6-1.7,6.6
		c-1.1,1.9-2.7,3.4-4.7,4.5C218.4,44.5,216.1,45,213.6,45L213.6,45z M213.6,40c2.1,0,3.9-0.7,5.3-2.1c1.4-1.4,2.1-3.3,2.1-5.6
		c0-2.3-0.7-4.2-2.1-5.6c-1.4-1.4-3.1-2.1-5.3-2.1c-2.1,0-3.9,0.7-5.3,2.1c-1.4,1.4-2.1,3.3-2.1,5.6c0,2.3,0.7,4.2,2.1,5.6
		C209.7,39.3,211.5,40,213.6,40L213.6,40z M246.4,19.7c3.1,0,5.6,0.9,7.5,2.7c1.9,1.8,2.8,4.5,2.8,8.1v14.2h-5.8V31.2
		c0-2.2-0.5-3.8-1.5-4.9c-1-1.1-2.5-1.6-4.4-1.6c-2.1,0-3.8,0.6-5,1.9c-1.2,1.3-1.9,3.1-1.9,5.5v12.5h-5.8V19.9h5.5v3.2
		c1-1.1,2.2-2,3.6-2.6C242.9,20,244.6,19.7,246.4,19.7L246.4,19.7z M288.9,19.9v21c0,8.7-4.4,13.1-13.3,13.1c-2.4,0-4.6-0.3-6.8-0.9
		c-2.1-0.6-3.9-1.5-5.3-2.6l2.6-4.4c1.1,0.9,2.4,1.6,4.1,2.2c1.7,0.5,3.3,0.8,5,0.8c2.7,0,4.7-0.6,6-1.9c1.3-1.2,1.9-3.1,1.9-5.7
		v-1.3c-1,1.1-2.2,1.9-3.6,2.5c-1.4,0.6-3,0.8-4.7,0.8c-2.3,0-4.5-0.5-6.4-1.5c-1.9-1-3.4-2.4-4.5-4.2c-1.1-1.8-1.6-3.9-1.6-6.3
		s0.5-4.4,1.6-6.2c1.1-1.8,2.6-3.2,4.5-4.2c1.9-1,4-1.5,6.4-1.5c1.8,0,3.4,0.3,4.9,0.9c1.5,0.6,2.7,1.5,3.7,2.7v-3.3H288.9
		L288.9,19.9z M275.7,38.7c2.2,0,4-0.7,5.4-2c1.4-1.3,2.1-3,2.1-5.1c0-2.1-0.7-3.8-2.1-5c-1.4-1.3-3.2-1.9-5.4-1.9
		c-2.2,0-4,0.6-5.4,1.9c-1.4,1.3-2.1,3-2.1,5c0,2.1,0.7,3.8,2.1,5.1C271.6,38,273.4,38.7,275.7,38.7L275.7,38.7z M307.6,45
		c-2.5,0-4.8-0.5-6.8-1.6c-2-1.1-3.6-2.6-4.7-4.5c-1.1-1.9-1.7-4.1-1.7-6.6s0.6-4.6,1.7-6.5c1.1-1.9,2.7-3.4,4.7-4.5
		c2-1.1,4.3-1.6,6.8-1.6c2.5,0,4.8,0.5,6.8,1.6c2,1.1,3.6,2.6,4.7,4.5c1.1,1.9,1.7,4.1,1.7,6.5s-0.6,4.6-1.7,6.6
		c-1.1,1.9-2.7,3.4-4.7,4.5C312.4,44.5,310.1,45,307.6,45L307.6,45z M307.6,40c2.1,0,3.9-0.7,5.3-2.1c1.4-1.4,2.1-3.3,2.1-5.6
		c0-2.3-0.7-4.2-2.1-5.6c-1.4-1.4-3.1-2.1-5.3-2.1c-2.1,0-3.9,0.7-5.3,2.1c-1.4,1.4-2.1,3.3-2.1,5.6c0,2.3,0.7,4.2,2.1,5.6
		C303.7,39.3,305.4,40,307.6,40L307.6,40z M326.3,10.3h5.8v34.4h-5.8V10.3L326.3,10.3z M368.1,45.1c-3.3,0-6.2-0.7-8.9-2.2
		c-2.6-1.4-4.7-3.4-6.2-6c-1.5-2.5-2.2-5.4-2.2-8.6c0-3.2,0.8-6,2.3-8.6c1.5-2.5,3.6-4.5,6.2-6c2.6-1.4,5.6-2.2,8.9-2.2
		c2.7,0,5.1,0.5,7.3,1.4c2.2,0.9,4,2.3,5.6,4l-3.9,3.7c-2.3-2.5-5.2-3.8-8.7-3.8c-2.2,0-4.2,0.5-6,1.5c-1.8,1-3.1,2.3-4.1,4.1
		c-1,1.7-1.5,3.7-1.5,5.9s0.5,4.2,1.5,5.9c1,1.7,2.4,3.1,4.1,4.1c1.8,1,3.8,1.5,6,1.5c3.4,0,6.3-1.3,8.7-3.8l3.9,3.7
		c-1.5,1.8-3.4,3.1-5.6,4C373.2,44.7,370.7,45.1,368.1,45.1L368.1,45.1z M400.2,19.7c3.1,0,5.6,0.9,7.5,2.7c1.9,1.8,2.8,4.5,2.8,8.1
		v14.2h-5.8V31.2c0-2.2-0.5-3.8-1.5-4.9c-1-1.1-2.5-1.6-4.4-1.6c-2.1,0-3.8,0.6-5,1.9c-1.2,1.3-1.9,3.1-1.9,5.5v12.5h-5.8V10.3h5.8
		v12.5c1-1,2.1-1.8,3.5-2.3C396.9,19.9,398.5,19.7,400.2,19.7L400.2,19.7z M427.4,19.7c3.6,0,6.4,0.9,8.4,2.6
		c1.9,1.7,2.9,4.4,2.9,7.9v14.5h-5.5v-3c-0.7,1.1-1.7,1.9-3,2.5c-1.3,0.6-2.9,0.9-4.7,0.9c-1.9,0-3.5-0.3-4.9-0.9
		c-1.4-0.6-2.5-1.5-3.2-2.6c-0.8-1.1-1.1-2.4-1.1-3.8c0-2.2,0.8-4,2.5-5.3c1.7-1.3,4.3-2,7.8-2h6.4v-0.4c0-1.7-0.5-3.1-1.6-4
		c-1-0.9-2.6-1.4-4.6-1.4c-1.4,0-2.8,0.2-4.1,0.6c-1.3,0.4-2.5,1-3.4,1.8l-2.3-4.2c1.3-1,2.9-1.7,4.7-2.3
		C423.4,19.9,425.3,19.7,427.4,19.7L427.4,19.7z M426.6,40.8c1.5,0,2.7-0.3,3.9-1c1.1-0.7,1.9-1.6,2.4-2.8v-2.9h-6
		c-3.3,0-5,1.1-5,3.3c0,1,0.4,1.9,1.3,2.5C423.9,40.5,425.1,40.8,426.6,40.8L426.6,40.8z M460.9,43.3c-0.7,0.6-1.5,1-2.5,1.3
		c-1,0.3-2,0.4-3.1,0.4c-2.7,0-4.8-0.7-6.3-2.1c-1.5-1.4-2.2-3.5-2.2-6.2V24.8h-4.1v-4.6h4.1v-5.7h5.8v5.7h6.6v4.6h-6.6v11.8
		c0,1.2,0.3,2.1,0.9,2.8c0.6,0.6,1.4,0.9,2.5,0.9c1.3,0,2.4-0.3,3.2-1L460.9,43.3z"/>
</g>
</svg>
