<svg xmlns="http://www.w3.org/2000/svg" viewBox="0 0 897.36 576.28"><defs><style>.cls-1{fill:#fff;}</style></defs><title>OBORTECH logo_V_clean_White</title><g id="Layer_2" data-name="Layer 2"><g id="Layer_1-2" data-name="Layer 1"><path class="cls-1" d="M119.63,509.39a93.26,93.26,0,0,1-3.91,28.12,56.67,56.67,0,0,1-11.62,21A50,50,0,0,1,85,571.74q-11.39,4.54-26.32,4.54-14.74,0-25.73-3.85a44.67,44.67,0,0,1-18.31-11.77,50.45,50.45,0,0,1-11-20.12Q0,528.33,0,511.63a90.42,90.42,0,0,1,3.91-27.58A56.21,56.21,0,0,1,15.53,463.2,50.66,50.66,0,0,1,34.62,450Q46,445.42,61,445.42a77.25,77.25,0,0,1,25.34,3.81A44.68,44.68,0,0,1,104.74,461a51.14,51.14,0,0,1,11.13,20Q119.62,493,119.63,509.39Zm-26.95,1.37a96.69,96.69,0,0,0-1.57-18.12,38.77,38.77,0,0,0-5.32-14,25.4,25.4,0,0,0-10-9q-6.25-3.17-15.62-3.17t-15.82,3.56a29.14,29.14,0,0,0-10.26,9.52,39.51,39.51,0,0,0-5.52,13.92A85.1,85.1,0,0,0,27,510.36,99.76,99.76,0,0,0,28.52,529a40,40,0,0,0,5.27,14.11,24.24,24.24,0,0,0,10,8.94q6.26,3.08,15.72,3.07t15.82-3.51A28.56,28.56,0,0,0,85.55,542a40.35,40.35,0,0,0,5.51-14.12A86.79,86.79,0,0,0,92.68,510.76Z"/><path class="cls-1" d="M232.71,536.15a37.7,37.7,0,0,1-1.85,12.2,32.26,32.26,0,0,1-12.94,16.9,45.41,45.41,0,0,1-10,5,62.25,62.25,0,0,1-11.67,2.88,93.72,93.72,0,0,1-13.82.93H148.83a8,8,0,0,1-5.42-1.91c-1.47-1.27-2.2-3.33-2.2-6.2V455.77q0-4.29,2.2-6.2a8,8,0,0,1,5.42-1.9h31.74a84.94,84.94,0,0,1,19.67,1.95,38.78,38.78,0,0,1,13.58,5.91,26.21,26.21,0,0,1,8.45,10,32.47,32.47,0,0,1,2.93,14.26,31,31,0,0,1-1.18,8.64,26,26,0,0,1-3.41,7.37,25.33,25.33,0,0,1-5.52,5.86,27.76,27.76,0,0,1-7.47,4.1,33.9,33.9,0,0,1,9.91,3.42,28.14,28.14,0,0,1,7.91,6.3,29.17,29.17,0,0,1,5.32,9A32.84,32.84,0,0,1,232.71,536.15Zm-33.2-53.23a18.81,18.81,0,0,0-1.17-6.83,12.24,12.24,0,0,0-3.52-5,16.11,16.11,0,0,0-5.9-3.08,34.41,34.41,0,0,0-9.53-1.07h-13v32.81h14.35a24.62,24.62,0,0,0,8.89-1.32,15.44,15.44,0,0,0,5.52-3.61,14.77,14.77,0,0,0,3.27-5.37A19.74,19.74,0,0,0,199.51,482.92Zm6.54,54.1a20,20,0,0,0-1.46-7.86,15.08,15.08,0,0,0-4.3-5.81,19.89,19.89,0,0,0-7.22-3.61,42.13,42.13,0,0,0-11.43-1.27H166.41v35.94H185a31.11,31.11,0,0,0,9-1.13,18.13,18.13,0,0,0,6.35-3.32,15.16,15.16,0,0,0,4.2-5.46A17.66,17.66,0,0,0,206.05,537Z"/><path class="cls-1" d="M367,509.39a93.59,93.59,0,0,1-3.9,28.12,56.68,56.68,0,0,1-11.63,21,50,50,0,0,1-19.09,13.18q-11.37,4.54-26.32,4.54-14.74,0-25.73-3.85A44.74,44.74,0,0,1,262,560.66a50.43,50.43,0,0,1-11-20.12q-3.67-12.21-3.67-28.91a90.73,90.73,0,0,1,3.91-27.58,56.35,56.35,0,0,1,11.62-20.85A50.74,50.74,0,0,1,282,450q11.38-4.59,26.42-4.59a77.21,77.21,0,0,1,25.34,3.81A44.68,44.68,0,0,1,352.1,461a51,51,0,0,1,11.13,20Q367,493,367,509.39ZM340,510.76a96.73,96.73,0,0,0-1.56-18.12,39,39,0,0,0-5.33-14,25.33,25.33,0,0,0-10-9q-6.24-3.17-15.62-3.17t-15.82,3.56a29.11,29.11,0,0,0-10.25,9.52,39.14,39.14,0,0,0-5.52,13.92,84.35,84.35,0,0,0-1.61,16.84A100.66,100.66,0,0,0,275.88,529a40.15,40.15,0,0,0,5.27,14.11,24.36,24.36,0,0,0,10,8.94q6.25,3.08,15.73,3.07t15.82-3.51A28.45,28.45,0,0,0,332.91,542a40.56,40.56,0,0,0,5.52-14.12A87.56,87.56,0,0,0,340,510.76Z"/><path class="cls-1" d="M482.32,570.72a3.8,3.8,0,0,1-.39,1.8,3.09,3.09,0,0,1-1.85,1.22,18.16,18.16,0,0,1-4.3.69q-2.83.2-7.71.19-4.11,0-6.55-.19a14.33,14.33,0,0,1-3.85-.74,4.14,4.14,0,0,1-2-1.36,7.76,7.76,0,0,1-1-2L443.36,542.1q-2.06-4.79-4-8.49a27,27,0,0,0-4.34-6.2,15.77,15.77,0,0,0-5.52-3.76,19,19,0,0,0-7.22-1.27h-8v48.14a2.69,2.69,0,0,1-.64,1.76,4.46,4.46,0,0,1-2.1,1.27,21.27,21.27,0,0,1-3.9.78,67,67,0,0,1-12.45,0,21.53,21.53,0,0,1-4-.78,4.13,4.13,0,0,1-2-1.27,2.87,2.87,0,0,1-.59-1.76V455.77c0-2.86.74-4.93,2.2-6.2a8,8,0,0,1,5.42-1.9h32.72q5,0,8.2.19t5.86.49a53.69,53.69,0,0,1,13.72,3.71A32.93,32.93,0,0,1,467,459,28.5,28.5,0,0,1,473.53,469a36.69,36.69,0,0,1,2.25,13.33,39.27,39.27,0,0,1-1.61,11.57,29.56,29.56,0,0,1-4.74,9.33,31,31,0,0,1-7.71,7.12,41.76,41.76,0,0,1-10.45,4.89,29,29,0,0,1,5.32,3.32,28.4,28.4,0,0,1,4.69,4.73,46.48,46.48,0,0,1,4.15,6.35,82.89,82.89,0,0,1,3.81,8.06l10.64,24.9c1,2.48,1.63,4.28,2,5.42A10.68,10.68,0,0,1,482.32,570.72ZM449.22,485a18.8,18.8,0,0,0-2.83-10.54q-2.83-4.31-9.28-6.06a37.45,37.45,0,0,0-4.44-.78,64,64,0,0,0-6.89-.29H414.26v35.84h13.08a31.26,31.26,0,0,0,9.57-1.32,19.15,19.15,0,0,0,6.84-3.71,15.25,15.25,0,0,0,4.1-5.71A19.4,19.4,0,0,0,449.22,485Z"/><path class="cls-1" d="M583.3,458.22a41.41,41.41,0,0,1-.24,4.83,13.14,13.14,0,0,1-.74,3.22,4.2,4.2,0,0,1-1.22,1.81,2.52,2.52,0,0,1-1.61.59H547.85V570.52a2.73,2.73,0,0,1-.63,1.76,4.57,4.57,0,0,1-2.1,1.27,21.53,21.53,0,0,1-4,.78,66.42,66.42,0,0,1-12.4,0,21.53,21.53,0,0,1-4-.78,4.57,4.57,0,0,1-2.1-1.27,2.73,2.73,0,0,1-.63-1.76V468.67H490.43a2.46,2.46,0,0,1-1.66-.59,4.43,4.43,0,0,1-1.17-1.81,13.14,13.14,0,0,1-.74-3.22,41.41,41.41,0,0,1-.24-4.83,43.6,43.6,0,0,1,.24-5,13.48,13.48,0,0,1,.74-3.28,4,4,0,0,1,1.17-1.75,2.59,2.59,0,0,1,1.66-.54h89.06a2.65,2.65,0,0,1,1.61.54,3.81,3.81,0,0,1,1.22,1.75,13.48,13.48,0,0,1,.74,3.28A43.6,43.6,0,0,1,583.3,458.22Z"/><path class="cls-1" d="M673.14,564a38.77,38.77,0,0,1-.24,4.73,12.35,12.35,0,0,1-.73,3.08A4,4,0,0,1,671,573.5a2.67,2.67,0,0,1-1.61.54H605.86a8,8,0,0,1-5.42-1.91c-1.47-1.27-2.2-3.33-2.2-6.2V455.77q0-4.29,2.2-6.2a8,8,0,0,1,5.42-1.9h63.08a2.61,2.61,0,0,1,1.57.49,3.77,3.77,0,0,1,1.17,1.71,12.6,12.6,0,0,1,.73,3.12,39.67,39.67,0,0,1,.25,4.84,37.58,37.58,0,0,1-.25,4.63,11.92,11.92,0,0,1-.73,3.08,4.28,4.28,0,0,1-1.17,1.71,2.47,2.47,0,0,1-1.57.54H623.83v30.86H662a2.7,2.7,0,0,1,1.61.53,4,4,0,0,1,1.22,1.66,11.54,11.54,0,0,1,.74,3,45.46,45.46,0,0,1,0,9.33,11.52,11.52,0,0,1-.74,3,3.6,3.6,0,0,1-1.22,1.61,2.87,2.87,0,0,1-1.61.48H623.83v35.65h45.51a2.67,2.67,0,0,1,1.61.54,3.85,3.85,0,0,1,1.22,1.71,12.26,12.26,0,0,1,.73,3.07A39,39,0,0,1,673.14,564Z"/><path class="cls-1" d="M780.27,554.9c0,1.62,0,3-.14,4.15a21.33,21.33,0,0,1-.44,2.93,8.86,8.86,0,0,1-.78,2.1,10.59,10.59,0,0,1-1.57,2,19.58,19.58,0,0,1-4.15,2.88,49.21,49.21,0,0,1-7.52,3.37A64.94,64.94,0,0,1,755.52,575a66.6,66.6,0,0,1-12.36,1.08,65,65,0,0,1-23.43-4,46.29,46.29,0,0,1-17.78-12,53.63,53.63,0,0,1-11.23-19.87q-3.9-11.91-3.9-27.74a88,88,0,0,1,4.29-28.61,59.81,59.81,0,0,1,12-21A50.43,50.43,0,0,1,721.63,450a62.46,62.46,0,0,1,23.78-4.39,56.91,56.91,0,0,1,10.16.88,62,62,0,0,1,9,2.29,46.1,46.1,0,0,1,7.47,3.27,22.58,22.58,0,0,1,4.64,3.18,11.33,11.33,0,0,1,1.81,2.19,8.65,8.65,0,0,1,.78,2.25,26.47,26.47,0,0,1,.44,3.22c.09,1.24.14,2.77.14,4.59s-.06,3.62-.19,5a12.54,12.54,0,0,1-.69,3.32,4.45,4.45,0,0,1-1.17,1.86,2.33,2.33,0,0,1-1.56.59,6.76,6.76,0,0,1-3.71-1.71,61.47,61.47,0,0,0-5.81-3.81,47.41,47.41,0,0,0-8.5-3.81,36.05,36.05,0,0,0-11.77-1.71A27.82,27.82,0,0,0,723,479.07a41.06,41.06,0,0,0-6.3,13.81,80.34,80.34,0,0,0,.15,37.55,37,37,0,0,0,6.54,13.43,26.38,26.38,0,0,0,10.25,7.86,33.8,33.8,0,0,0,13.53,2.59A38.67,38.67,0,0,0,759,552.7a49.73,49.73,0,0,0,8.55-3.57q3.57-1.95,5.86-3.51a7.29,7.29,0,0,1,3.56-1.56,2.83,2.83,0,0,1,1.57.39,2.93,2.93,0,0,1,1,1.56,15.24,15.24,0,0,1,.59,3.27C780.21,550.68,780.27,552.55,780.27,554.9Z"/><path class="cls-1" d="M897.36,570.52a2.73,2.73,0,0,1-.63,1.76,4.57,4.57,0,0,1-2.1,1.27,21.4,21.4,0,0,1-3.91.78,54.45,54.45,0,0,1-6.15.29,57,57,0,0,1-6.3-.29,20.37,20.37,0,0,1-3.91-.78,4.54,4.54,0,0,1-2.05-1.27,2.73,2.73,0,0,1-.63-1.76V519.45H824.41v51.07a2.86,2.86,0,0,1-.58,1.76,4.18,4.18,0,0,1-2.05,1.27,21.4,21.4,0,0,1-3.91.78,67,67,0,0,1-12.45,0,21.53,21.53,0,0,1-4-.78,4.57,4.57,0,0,1-2.1-1.27,2.73,2.73,0,0,1-.63-1.76V451.18a2.71,2.71,0,0,1,.63-1.75,4.49,4.49,0,0,1,2.1-1.27,20,20,0,0,1,4-.78,64.73,64.73,0,0,1,12.45,0,19.82,19.82,0,0,1,3.91.78,4.11,4.11,0,0,1,2.05,1.27,2.83,2.83,0,0,1,.58,1.75v46.39h47.27V451.18a2.71,2.71,0,0,1,.63-1.75,4.46,4.46,0,0,1,2.05-1.27,18.93,18.93,0,0,1,3.91-.78,54.34,54.34,0,0,1,6.3-.3,51.9,51.9,0,0,1,6.15.3,19.82,19.82,0,0,1,3.91.78,4.49,4.49,0,0,1,2.1,1.27,2.71,2.71,0,0,1,.63,1.75Z"/><polygon class="cls-1" points="503.35 157.89 470.37 157.89 470.37 124.49 432.17 124.49 432.17 157.89 397.9 157.89 397.9 194.97 432.17 194.97 432.17 229.94 470.37 229.94 470.37 194.97 503.35 194.97 503.35 157.89"/><rect class="cls-1" x="373.88" y="214.81" width="38.44" height="38.44"/><rect class="cls-1" x="373.88" y="99.6" width="38.44" height="38.44"/><rect class="cls-1" x="490.22" y="99.6" width="38.44" height="38.44"/><path class="cls-1" d="M273,0V357.38H630.35V0ZM548.5,157.89H512.33V195H548.5V273.1H470.37V238.92h-38.2V273.1H354V195h34.89V157.89H354V79.75h78.14v35.76h38.2V79.75H548.5Z"/><rect class="cls-1" x="490.22" y="214.81" width="38.44" height="38.44"/></g></g></svg>