<?xml version="1.0" encoding="utf-8"?>
<!-- Generator: Adobe Illustrator 24.0.2, SVG Export Plug-In . SVG Version: 6.00 Build 0)  -->
<svg version="1.1" id="Layer_1" xmlns="http://www.w3.org/2000/svg" xmlns:xlink="http://www.w3.org/1999/xlink" x="0px" y="0px"
	 viewBox="0 0 992.1 652" style="enable-background:new 0 0 992.1 652;" xml:space="preserve">
<style type="text/css">
	.st0{fill:#FF0000;}
</style>
<title>OBORTECH logo_V_clean</title>
<g id="Layer_2_1_">
	<g id="Layer_1-2">
		<path class="st0" d="M167,547.2c0.1,9.5-1.2,19-3.9,28.1c-2.3,7.7-6.3,14.9-11.6,21c-5.2,5.8-11.8,10.4-19.1,13.2
			c-7.6,3-16.4,4.5-26.3,4.5c-9.8,0-18.4-1.3-25.7-3.8c-7-2.4-13.3-6.4-18.3-11.8c-5.2-5.8-8.9-12.7-11-20.1
			c-2.4-8.1-3.6-17.8-3.6-28.9c-0.1-9.3,1.2-18.6,3.9-27.6c2.3-7.7,6.3-14.8,11.6-20.8c5.3-5.8,11.8-10.3,19.1-13.2
			c7.6-3.1,16.4-4.6,26.4-4.6c8.6-0.1,17.2,1.1,25.3,3.8c7,2.3,13.3,6.4,18.4,11.8c5.2,5.7,9,12.6,11.1,20
			C165.8,526.8,167,536.3,167,547.2z M140.1,548.6c0-6.1-0.5-12.1-1.6-18.1c-0.8-5-2.7-9.7-5.3-14c-2.5-3.8-5.9-7-10-9
			c-4.2-2.1-9.4-3.2-15.6-3.2s-11.5,1.2-15.8,3.6c-4.1,2.3-7.7,5.6-10.3,9.5c-2.7,4.2-4.6,9-5.5,13.9c-1.1,5.6-1.6,11.2-1.6,16.9
			c-0.1,6.2,0.4,12.5,1.5,18.6c0.8,5,2.6,9.8,5.3,14.1c2.4,3.9,5.9,7,10,8.9c4.2,2.1,9.4,3.1,15.7,3.1c6.3,0,11.6-1.2,15.8-3.5
			c4.2-2.3,7.7-5.6,10.2-9.6c2.7-4.3,4.6-9.1,5.5-14.1C139.5,560.1,140.1,554.4,140.1,548.6z"/>
		<path class="st0" d="M280.1,574c0.1,4.1-0.6,8.3-1.9,12.2c-2.3,6.9-6.8,12.9-12.9,16.9c-3.1,2.1-6.5,3.8-10,5
			c-3.8,1.3-7.7,2.3-11.7,2.9c-4.6,0.7-9.2,1-13.8,0.9h-33.6c-2,0.1-3.9-0.6-5.4-1.9c-1.5-1.3-2.2-3.3-2.2-6.2V493.6
			c0-2.9,0.7-4.9,2.2-6.2c1.5-1.3,3.4-2,5.4-1.9H228c6.6-0.1,13.2,0.5,19.7,2c4.9,1.1,9.5,3.1,13.6,5.9c3.6,2.6,6.5,6,8.5,10
			c2,4.5,3,9.3,2.9,14.3c0,2.9-0.4,5.8-1.2,8.6c-0.7,2.6-1.9,5.1-3.4,7.4c-1.5,2.2-3.4,4.2-5.5,5.9c-2.3,1.7-4.8,3.1-7.5,4.1
			c3.5,0.6,6.8,1.8,9.9,3.4c3,1.6,5.7,3.7,7.9,6.3c2.3,2.7,4.1,5.7,5.3,9C279.5,566.1,280.2,570,280.1,574z M246.9,520.8
			c0-2.3-0.4-4.6-1.2-6.8c-0.7-1.9-1.9-3.7-3.5-5c-1.7-1.4-3.7-2.5-5.9-3.1c-3.1-0.8-6.3-1.2-9.5-1.1h-13v32.8h14.4
			c3,0.1,6-0.3,8.9-1.3c2.1-0.8,4-2,5.5-3.6c1.5-1.5,2.6-3.4,3.3-5.4C246.5,525.2,246.9,523,246.9,520.8L246.9,520.8z M253.4,574.9
			c0-2.7-0.4-5.4-1.5-7.9c-0.9-2.3-2.4-4.3-4.3-5.8c-2.1-1.7-4.6-2.9-7.2-3.6c-3.7-0.9-7.6-1.4-11.4-1.3h-15.2v35.9h18.6
			c3,0.1,6.1-0.3,9-1.1c2.3-0.7,4.5-1.8,6.4-3.3c1.8-1.5,3.2-3.3,4.2-5.5C253,580,253.5,577.4,253.4,574.9L253.4,574.9z"/>
		<path class="st0" d="M414.4,547.2c0.1,9.5-1.2,19-3.9,28.1c-2.3,7.8-6.3,14.9-11.6,21c-5.2,5.8-11.8,10.3-19.1,13.2
			c-7.6,3-16.4,4.5-26.3,4.5c-9.8,0-18.4-1.3-25.7-3.8c-7-2.3-13.3-6.4-18.3-11.7c-5.2-5.8-8.9-12.7-11-20.1
			c-2.4-8.1-3.7-17.8-3.7-28.9c-0.1-9.3,1.2-18.6,3.9-27.6c2.3-7.7,6.3-14.8,11.6-20.9c5.3-5.8,11.8-10.3,19.1-13.2
			c7.6-3.1,16.4-4.6,26.4-4.6c8.6-0.2,17.2,1.1,25.3,3.8c7,2.4,13.3,6.4,18.3,11.8c5.2,5.7,9,12.6,11.1,20
			C413.1,526.8,414.4,536.3,414.4,547.2z M387.4,548.6c0.1-6.1-0.5-12.1-1.6-18.1c-0.9-5-2.7-9.7-5.3-14c-2.5-3.8-5.9-7-10-9
			c-4.2-2.1-9.4-3.2-15.6-3.2c-6.3,0-11.5,1.2-15.8,3.6c-4.1,2.3-7.7,5.6-10.2,9.5c-2.7,4.2-4.6,9-5.5,13.9
			c-1.1,5.5-1.6,11.2-1.6,16.8c-0.1,6.3,0.5,12.5,1.6,18.7c0.9,5,2.6,9.8,5.3,14.1c2.4,3.9,5.9,7,10,8.9c4.2,2.1,9.4,3.1,15.7,3.1
			s11.6-1.2,15.8-3.5c4.2-2.3,7.7-5.6,10.2-9.6c2.7-4.3,4.6-9.1,5.5-14.1C386.9,560.1,387.4,554.3,387.4,548.6z"/>
		<path class="st0" d="M529.7,608.6c0,0.6-0.1,1.2-0.4,1.8c-0.4,0.6-1.1,1.1-1.8,1.2c-1.4,0.4-2.8,0.6-4.3,0.7
			c-1.9,0.1-4.5,0.2-7.7,0.2c-2.7,0-4.9-0.1-6.5-0.2c-1.3-0.1-2.6-0.3-3.9-0.7c-0.8-0.2-1.5-0.7-2-1.4c-0.4-0.6-0.8-1.3-1-2
			L490.8,580c-1.4-3.2-2.7-6-4-8.5c-1.1-2.3-2.6-4.3-4.3-6.2c-1.6-1.6-3.4-2.9-5.5-3.8c-2.3-0.9-4.8-1.3-7.2-1.3h-8v48.1
			c0,0.6-0.2,1.3-0.6,1.8c-0.6,0.6-1.3,1.1-2.1,1.3c-1.3,0.4-2.6,0.6-3.9,0.8c-4.1,0.4-8.3,0.4-12.5,0c-1.4-0.1-2.7-0.4-4-0.8
			c-0.8-0.2-1.5-0.7-2-1.3c-0.4-0.5-0.6-1.1-0.6-1.8V493.6c0-2.9,0.7-4.9,2.2-6.2c1.5-1.3,3.4-2,5.4-1.9h32.7c3.3,0,6.1,0.1,8.2,0.2
			s4.1,0.3,5.9,0.5c4.7,0.6,9.3,1.9,13.7,3.7c3.8,1.6,7.3,4,10.3,6.9c2.9,2.8,5.1,6.2,6.5,10c1.6,4.3,2.3,8.8,2.2,13.3
			c0,3.9-0.5,7.8-1.6,11.6c-1,3.4-2.6,6.5-4.7,9.3c-2.1,2.8-4.8,5.2-7.7,7.1c-3.2,2.1-6.8,3.8-10.5,4.9c1.9,0.9,3.7,2,5.3,3.3
			c1.7,1.4,3.3,3,4.7,4.7c1.6,2,2.9,4.1,4.2,6.3c1.4,2.6,2.7,5.3,3.8,8.1l10.6,24.9c1,2.5,1.6,4.3,2,5.4
			C529.5,606.7,529.7,607.6,529.7,608.6z M496.6,522.8c0.1-3.7-0.9-7.4-2.8-10.5c-1.9-2.9-5-4.9-9.3-6.1c-1.5-0.3-2.9-0.6-4.4-0.8
			c-2.3-0.2-4.6-0.3-6.9-0.3h-11.5V541h13.1c3.2,0.1,6.5-0.4,9.6-1.3c2.5-0.8,4.8-2,6.8-3.7c1.8-1.6,3.2-3.5,4.1-5.7
			C496.2,527.9,496.6,525.4,496.6,522.8z"/>
		<path class="st0" d="M630.7,496.1c0,1.6-0.1,3.2-0.2,4.8c-0.1,1.1-0.4,2.2-0.7,3.2c-0.2,0.7-0.7,1.3-1.2,1.8
			c-0.5,0.4-1,0.6-1.6,0.6h-31.6v101.9c0,0.6-0.2,1.3-0.6,1.8c-0.6,0.6-1.3,1-2.1,1.3c-1.3,0.4-2.6,0.6-4,0.8
			c-4.1,0.4-8.3,0.4-12.4,0c-1.4-0.1-2.7-0.4-4-0.8c-0.8-0.2-1.5-0.7-2.1-1.3c-0.4-0.5-0.6-1.1-0.6-1.8V506.5H538
			c-0.6,0-1.2-0.2-1.7-0.6c-0.5-0.5-0.9-1.1-1.2-1.8c-0.4-1-0.6-2.1-0.7-3.2c-0.2-1.6-0.3-3.2-0.2-4.8c0-1.7,0.1-3.3,0.2-5
			c0.1-1.1,0.4-2.2,0.7-3.3c0.2-0.7,0.6-1.3,1.2-1.8c0.5-0.4,1.1-0.6,1.7-0.5h89.1c0.6,0,1.1,0.2,1.6,0.5c0.6,0.5,1,1.1,1.2,1.8
			c0.4,1.1,0.6,2.2,0.7,3.3C630.6,492.7,630.7,494.4,630.7,496.1z"/>
		<path class="st0" d="M720.5,601.8c0,1.6-0.1,3.2-0.2,4.7c-0.1,1.1-0.4,2.1-0.7,3.1c-0.2,0.7-0.6,1.2-1.2,1.7
			c-0.5,0.4-1,0.5-1.6,0.5h-63.5c-2,0.1-3.9-0.6-5.4-1.9c-1.5-1.3-2.2-3.3-2.2-6.2V493.6c0-2.9,0.7-4.9,2.2-6.2
			c1.5-1.3,3.4-2,5.4-1.9h63.1c0.6,0,1.1,0.2,1.6,0.5c0.5,0.4,0.9,1,1.2,1.7c0.4,1,0.6,2.1,0.7,3.1c0.2,1.6,0.3,3.2,0.2,4.8
			c0,1.5-0.1,3.1-0.2,4.6c-0.1,1.1-0.4,2.1-0.7,3.1c-0.2,0.7-0.6,1.2-1.2,1.7c-0.4,0.4-1,0.5-1.6,0.5h-45.1v30.9h38.2
			c0.6,0,1.1,0.2,1.6,0.5c0.5,0.4,1,1,1.2,1.7c0.4,1,0.6,2,0.7,3c0.3,3.1,0.3,6.2,0,9.3c-0.1,1-0.4,2-0.7,3
			c-0.2,0.6-0.7,1.2-1.2,1.6c-0.5,0.3-1,0.5-1.6,0.5h-38.2v35.7h45.5c0.6,0,1.1,0.2,1.6,0.5c0.6,0.4,1,1,1.2,1.7
			c0.4,1,0.6,2,0.7,3.1C720.5,598.7,720.5,600.3,720.5,601.8z"/>
		<path class="st0" d="M827.7,592.7c0,1.6,0,3-0.1,4.2c-0.1,1-0.2,2-0.4,2.9c-0.2,0.7-0.4,1.4-0.8,2.1c-0.4,0.7-1,1.4-1.6,2
			c-1.3,1.1-2.6,2.1-4.2,2.9c-2.4,1.3-4.9,2.5-7.5,3.4c-3.3,1.2-6.7,2.1-10.1,2.7c-4.1,0.7-8.2,1.1-12.4,1.1c-8,0.1-15.9-1.2-23.4-4
			c-6.8-2.6-12.9-6.7-17.8-12c-5.1-5.7-9-12.5-11.2-19.9c-2.6-7.9-3.9-17.2-3.9-27.7c-0.2-9.7,1.3-19.4,4.3-28.6
			c2.5-7.7,6.6-14.9,12-21c5.1-5.6,11.5-10,18.5-12.9c7.6-3,15.6-4.5,23.8-4.4c3.4,0,6.8,0.3,10.2,0.9c3.1,0.5,6.1,1.3,9,2.3
			c2.6,0.9,5.1,2,7.5,3.3c1.7,0.9,3.2,1.9,4.6,3.2c0.7,0.7,1.3,1.4,1.8,2.2c0.4,0.7,0.6,1.5,0.8,2.2c0.2,1.1,0.4,2.1,0.4,3.2
			c0.1,1.2,0.1,2.8,0.1,4.6s-0.1,3.6-0.2,5c-0.1,1.1-0.3,2.2-0.7,3.3c-0.2,0.7-0.6,1.3-1.2,1.9c-0.4,0.4-1,0.6-1.6,0.6
			c-1.4-0.2-2.7-0.8-3.7-1.7c-1.9-1.4-3.8-2.7-5.8-3.8c-2.7-1.5-5.5-2.8-8.5-3.8c-3.8-1.2-7.8-1.8-11.8-1.7
			c-9.3-0.2-18.1,4.2-23.5,11.9c-2.9,4.2-5.1,8.9-6.3,13.8c-2.9,12.4-2.9,25.2,0.2,37.5c1.2,4.9,3.5,9.4,6.5,13.4
			c2.7,3.4,6.2,6.1,10.2,7.9c4.3,1.8,8.9,2.7,13.5,2.6c4,0.1,8-0.5,11.8-1.6c3-0.9,5.8-2.1,8.5-3.6c2.4-1.3,4.3-2.5,5.9-3.5
			c1-0.8,2.3-1.4,3.6-1.6c0.6,0,1.1,0.1,1.6,0.4c0.5,0.4,0.8,0.9,1,1.6c0.3,1.1,0.5,2.2,0.6,3.3
			C827.6,588.5,827.7,590.4,827.7,592.7z"/>
		<path class="st0" d="M944.7,608.4c0,0.6-0.2,1.3-0.6,1.8c-0.6,0.6-1.3,1-2.1,1.3c-1.3,0.4-2.6,0.6-3.9,0.8c-2,0.2-4.1,0.3-6.2,0.3
			c-2.1,0-4.2-0.1-6.3-0.3c-1.3-0.1-2.6-0.4-3.9-0.8c-0.8-0.2-1.5-0.7-2-1.3c-0.4-0.5-0.6-1.1-0.6-1.8v-51.1h-47.3v51.1
			c0,0.6-0.2,1.3-0.6,1.8c-0.5,0.6-1.3,1.1-2,1.3c-1.3,0.4-2.6,0.6-3.9,0.8c-4.1,0.4-8.3,0.4-12.5,0c-1.4-0.1-2.7-0.4-4-0.8
			c-0.8-0.2-1.5-0.7-2.1-1.3c-0.4-0.5-0.6-1.1-0.6-1.8V489c0-0.6,0.2-1.3,0.6-1.8c0.6-0.6,1.3-1,2.1-1.3c1.3-0.4,2.6-0.7,4-0.8
			c4.1-0.4,8.3-0.4,12.5,0c1.3,0.1,2.6,0.4,3.9,0.8c0.8,0.2,1.5,0.7,2,1.3c0.4,0.5,0.6,1.1,0.6,1.8v46.4h47.3V489
			c0-0.6,0.2-1.3,0.6-1.8c0.6-0.6,1.3-1,2-1.3c1.3-0.4,2.6-0.7,3.9-0.8c2.1-0.2,4.2-0.3,6.3-0.3s4.1,0.1,6.2,0.3
			c1.3,0.1,2.6,0.4,3.9,0.8c0.8,0.2,1.5,0.7,2.1,1.3c0.4,0.5,0.6,1.1,0.6,1.8V608.4z"/>
		<polygon class="st0" points="550.7,195.7 517.8,195.7 517.8,162.3 479.6,162.3 479.6,195.7 445.3,195.7 445.3,232.8 479.6,232.8 
			479.6,267.8 517.8,267.8 517.8,232.8 550.7,232.8 		"/>
		<rect x="421.3" y="252.7" class="st0" width="38.4" height="38.4"/>
		<rect x="421.3" y="137.4" class="st0" width="38.4" height="38.4"/>
		<rect x="537.6" y="137.4" class="st0" width="38.4" height="38.4"/>
		<path class="st0" d="M320.4,37.8v357.4h357.3V37.8H320.4z M595.9,195.7h-36.2v37.1h36.2v78.1h-78.1v-34.2h-38.2v34.2h-78.2v-78.1
			h34.9v-37.1h-34.9v-78.1h78.1v35.8h38.2v-35.8h78.2V195.7z"/>
		<rect x="537.6" y="252.7" class="st0" width="38.4" height="38.4"/>
	</g>
</g>
</svg>
