<svg enable-background="new 0 0 38 32" height="32" viewBox="0 0 38 32" width="38" xmlns="http://www.w3.org/2000/svg"><g fill="#828282"><path d="m32.509 7.5c.276 0 .5-.224.5-.5v-1.665c0-.903-.735-1.638-1.638-1.638h-2.687l-.613-1.809c-.086-.255-.36-.397-.619-.318l-14.553 4.424c-.264.081-.413.36-.333.624.066.216.264.354.479.354.048 0 .097-.007.146-.021l14.089-4.284 1.343 3.965c.089.262.375.404.634.313.262-.088.402-.373.313-.634l-.547-1.615h2.349c.352 0 .638.286.638.638v1.666c-.001.276.223.5.499.5z"/><path d="m36.5 15c-.276 0-.5.224-.5.5s.224.5.5.5c.351 0 .5.149.5.5v6c0 .351-.149.5-.5.5h-8c-.351 0-.5-.149-.5-.5v-5c0-.351.149-.5.5-.5h6c.276 0 .5-.224.5-.5v-6c0-.911-.589-1.5-1.5-1.5h-30.5c-1.233 0-2-.767-2-2s.767-2 2-2h5.076l-3.026.998c-.262.086-.405.369-.319.631.069.21.265.343.475.343.052 0 .104-.008.157-.025l18.119-5.973c.262-.087.405-.369.318-.632-.086-.262-.369-.405-.632-.318l-12.1 3.99c-.023-.004-.044-.014-.068-.014h-8c-1.794 0-3 1.206-3 3v22c0 1.794 1.206 3 3 3h30.5c.911 0 1.5-.589 1.5-1.5v-5c0-.276-.224-.5-.5-.5s-.5.224-.5.5v5c0 .351-.149.5-.5.5h-30.5c-1.233 0-2-.767-2-2v-19.688c.513.433 1.192.688 2 .688h30.5c.351 0 .5.149.5.5v5.5h-5.5c-.911 0-1.5.589-1.5 1.5v5c0 .911.589 1.5 1.5 1.5h8c.911 0 1.5-.589 1.5-1.5v-6c0-.911-.589-1.5-1.5-1.5z"/><circle cx="32" cy="20" r="1"/></g></svg>